<?xml version="1.0" encoding="utf-8"?>
<!-- Generator: Adobe Illustrator 26.4.1, SVG Export Plug-In . SVG Version: 6.00 Build 0)  -->
<svg version="1.1" id="Layer_1" xmlns="http://www.w3.org/2000/svg" xmlns:xlink="http://www.w3.org/1999/xlink" x="0px" y="0px"
	 viewBox="0 0 124.5 109.5" style="enable-background:new 0 0 124.5 109.5;" xml:space="preserve">
<style type="text/css">
	.st0{fill:#FFFFFF;}
	.st1{fill:#003863;}
	.st2{fill:#E4032E;}
	.st3{fill:#575756;}
</style>
<g>
	<g>
		<path class="st0" d="M99.8,37.5C99.8,58.2,83,75,62.3,75S24.8,58.2,24.8,37.5S41.6,0,62.3,0C83-0.1,99.8,16.8,99.8,37.5z"/>
		<g>
			<g>
				<g>
					<g>
						<g>
							<g>
								<path class="st1" d="M79.9,34.9c-6-4.1-13.6-2.4-17.6,3.7c-3.3,5.1-8.4,5.7-10.4,5.7c-6.4,0-10.8-4.5-12.1-9.1l0,0
									c0-0.1,0-0.1,0-0.1c0-0.1,0-0.1,0-0.2C39.3,33,39.2,32,39.2,30C39.2,18.9,50.6,6.5,67,6.5c16.8,0,26.4,12.8,28.9,19.9
									c0-0.1-0.1-0.3-0.1-0.4C91,12.1,77.8,2.1,62.3,2.1c-19.5,0-35.4,15.8-35.4,35.4C26.9,55,39.5,69.9,57,69.9
									c13.9,0,23.3-7.8,27.6-18.6C86.9,45.4,85.3,38.5,79.9,34.9z"/>
							</g>
							<g>
								<path class="st2" d="M96.1,27.1C94,20.2,84.3,6.5,66.9,6.5C50.5,6.5,39.1,18.9,39.1,30c0,2.1,0.1,3,0.6,4.9
									c-0.2-0.9-0.3-1.7-0.3-2.5c0-11.6,11.6-19.6,23.5-19.6C79,12.8,92.1,25.9,92.1,42c0,12.6-7.3,23.6-17.8,28.8l0,0
									c13.6-4.9,23.4-18,23.4-33.3C97.7,33.9,97.2,30.7,96.1,27.1z"/>
							</g>
						</g>
					</g>
				</g>
			</g>
		</g>
	</g>
	<g>
		<path class="st3" d="M0,89.8h8.6V92h-6v11.8h6.3v2.2H0.1V89.8H0z M15.5,88.5h2.4v20.4h-2.4v-9.8h-2.7v9.7h-2.4V88.6h2.4V97h2.7
			V88.5z"/>
		<path class="st3" d="M21.1,92.2V90h4.8v-1.9h2.7V90h4.8v2.2H21.1z M22,108.4v-6.2h2.5v4h13.9v2.2H22z M31.9,97.1
			c0,0.6-0.1,1.2-0.4,1.7c-0.2,0.5-0.6,1-1,1.4s-0.9,0.7-1.5,0.9s-1.2,0.4-1.8,0.4s-1.3-0.1-1.8-0.4c-0.6-0.2-1.1-0.5-1.5-0.9
			s-0.8-0.9-1-1.4c-0.3-0.5-0.4-1.1-0.4-1.7c0-0.6,0.1-1.2,0.4-1.7c0.2-0.5,0.6-1,1-1.4s0.9-0.7,1.5-1c0.6-0.2,1.2-0.3,1.8-0.3
			c0.7,0,1.3,0.1,1.8,0.3c0.6,0.2,1.1,0.6,1.5,1s0.7,0.9,1,1.4C31.8,95.9,31.9,96.5,31.9,97.1z M29.5,97.1c0-0.6-0.2-1.2-0.7-1.6
			c-0.4-0.5-1-0.7-1.6-0.7s-1.1,0.2-1.6,0.7c-0.4,0.4-0.7,1-0.7,1.6s0.2,1.2,0.7,1.6c0.4,0.4,1,0.6,1.6,0.6s1.2-0.2,1.6-0.6
			C29.3,98.2,29.5,97.7,29.5,97.1z M38,94h2.9v2.2H38v5.3h-2.5v-13H38V94z"/>
		<path class="st3" d="M43.5,99.5V89.1H54v10.4H43.5z M44.1,108.4v-6.7h2.5v4.6h14.2v2.2H44.1V108.4z M51.5,91.3H46v6.1h5.5V91.3z
			 M58.1,101.5v-13h2.5v13H58.1z"/>
		<path class="st3" d="M81,101.8v7.1h-2.5V104H65.1v-2.2h6.8v-3h-8.1v-2.2h18.7v2.2h-8.1v3L81,101.8L81,101.8z M81,88.9V95h-2.5
			v-3.8H65.3V89H81V88.9z"/>
		<path class="st3" d="M85.1,91.3v-2.2h11.6v2.2h-5l5.2,6.3l-1.8,1.5l-4.2-5.2l-4.1,5.6L85,98l5.2-6.7L85.1,91.3L85.1,91.3z
			 M101.3,104.5c0,0.7-0.1,1.3-0.4,1.9c-0.3,0.6-0.7,1.1-1.1,1.6c-0.5,0.5-1,0.8-1.7,1.1c-0.6,0.3-1.3,0.4-2.1,0.4
			c-0.7,0-1.4-0.1-2.1-0.4c-0.7-0.3-1.2-0.6-1.7-1.1s-0.9-1-1.1-1.6c-0.3-0.6-0.4-1.2-0.4-1.9s0.1-1.3,0.4-1.9
			c0.3-0.6,0.7-1.1,1.1-1.6c0.5-0.5,1-0.8,1.7-1.1s1.3-0.4,2.1-0.4c0.7,0,1.4,0.1,2.1,0.4c0.6,0.3,1.2,0.6,1.7,1.1s0.8,1,1.1,1.6
			C101.1,103.2,101.3,103.8,101.3,104.5z M98.8,104.5c0-0.8-0.3-1.4-0.8-2c-0.6-0.6-1.2-0.8-2-0.8s-1.4,0.3-2,0.8
			c-0.5,0.5-0.8,1.2-0.8,2s0.3,1.4,0.8,2c0.5,0.5,1.2,0.8,2,0.8s1.4-0.3,2-0.8C98.5,105.9,98.8,105.3,98.8,104.5z M100.5,99.3v-4.4
			h-3.8v-2.2h3.8v-4.2h2.5v10.8H100.5z"/>
		<path class="st3" d="M105.8,101.4h18.7v2.2h-8.1v5.2h-2.5v-5.2h-8.1V101.4z M109.8,91.4h10.7v-2.6h2.5v9.8h-15.7v-9.8h2.5V91.4z
			 M120.5,93.6h-10.7v2.8h10.7V93.6z"/>
	</g>
</g>
</svg>
